<?xml version="1.0" standalone="no"?>
<!DOCTYPE svg PUBLIC "-//W3C//DTD SVG 1.1//EN"
"http://www.w3.org/Graphics/SVG/1.1/DTD/svg11.dtd">

<svg width="852" height="496" view_box="0 0 852 496"
xmlns="http://www.w3.org/2000/svg"
xmlns:link="http://www.w3.org/1999/xlink">\n\n<desc>Généré par Mocodo 2.3.7 le Sun, 19 Jul 2020 12:15:36</desc>

<rect id="frame" x="0" y="0" width="852" height="496" fill="#f5f5f5" stroke="none" stroke-width="0"/>

<!-- Entity Students -->
<g id="entity-Students">
	<g id="frame-Students">
		<rect x="42" y="18" width="112" height="26" fill="#80cdc1" stroke="#80cdc1" stroke-width="0"/>
		<rect x="42" y="44.0" width="112" height="80" fill="#c7eae5" stroke="#c7eae5" stroke-width="0"/>
		<rect x="42" y="18" width="112" height="106" fill="none" stroke="#35978f" stroke-width="1.5"/>
		<line x1="42" y1="44" x2="154" y2="44" stroke="#35978f" stroke-width="1"/>
	</g>
	<text x="64" y="36.6" fill="#000000" font-family="Courier New" font-size="14">Students</text>
	<text x="47" y="62.6" fill="#000000" font-family="Courier New" font-size="14">IdStudent</text>
	<line x1="47" y1="65.0" x2="124" y2="65.0" stroke="#000000" stroke-width="1"/>
	<text x="47" y="80.6" fill="#000000" font-family="Courier New" font-size="14">StdFirstname</text>
	<text x="47" y="98.6" fill="#000000" font-family="Courier New" font-size="14">StdLastname</text>
	<text x="47" y="116.6" fill="#000000" font-family="Courier New" font-size="14">OrderKey</text>
</g>

<!-- Entity Desks -->
<g id="entity-Desks">
	<g id="frame-Desks">
		<rect x="398" y="9" width="96" height="26" fill="#80cdc1" stroke="#80cdc1" stroke-width="0"/>
		<rect x="398" y="35.0" width="96" height="98" fill="#c7eae5" stroke="#c7eae5" stroke-width="0"/>
		<rect x="398" y="9" width="96" height="124" fill="none" stroke="#35978f" stroke-width="1.5"/>
		<line x1="398" y1="35" x2="494" y2="35" stroke="#35978f" stroke-width="1"/>
	</g>
	<text x="424" y="27.6" fill="#000000" font-family="Courier New" font-size="14">Desks</text>
	<text x="403" y="53.6" fill="#000000" font-family="Courier New" font-size="14">IdDesk</text>
	<line x1="403" y1="56.0" x2="455" y2="56.0" stroke="#000000" stroke-width="1"/>
	<text x="403" y="71.6" fill="#000000" font-family="Courier New" font-size="14">DeskRow</text>
	<text x="403" y="89.6" fill="#000000" font-family="Courier New" font-size="14">DeskCol</text>
	<text x="403" y="107.6" fill="#000000" font-family="Courier New" font-size="14">#IdStudent</text>
	<text x="403" y="125.6" fill="#000000" font-family="Courier New" font-size="14">#IdCourse</text>
</g>

<!-- Entity Courses -->
<g id="entity-Courses">
	<g id="frame-Courses">
		<rect x="714" y="27" width="96" height="26" fill="#80cdc1" stroke="#80cdc1" stroke-width="0"/>
		<rect x="714" y="53.0" width="96" height="62" fill="#c7eae5" stroke="#c7eae5" stroke-width="0"/>
		<rect x="714" y="27" width="96" height="88" fill="none" stroke="#35978f" stroke-width="1.5"/>
		<line x1="714" y1="53" x2="810" y2="53" stroke="#35978f" stroke-width="1"/>
	</g>
	<text x="732" y="45.6" fill="#000000" font-family="Courier New" font-size="14">Courses</text>
	<text x="719" y="71.6" fill="#000000" font-family="Courier New" font-size="14">IdCourse</text>
	<line x1="719" y1="74.0" x2="787" y2="74.0" stroke="#000000" stroke-width="1"/>
	<text x="719" y="89.6" fill="#000000" font-family="Courier New" font-size="14">CourseName</text>
	<text x="719" y="107.6" fill="#000000" font-family="Courier New" font-size="14">#IdTopic</text>
</g>

<!-- Entity IsIn -->
<g id="entity-IsIn">
	<g id="frame-IsIn">
		<rect x="228" y="157" width="96" height="26" fill="#80cdc1" stroke="#80cdc1" stroke-width="0"/>
		<rect x="228" y="183.0" width="96" height="44" fill="#c7eae5" stroke="#c7eae5" stroke-width="0"/>
		<rect x="228" y="157" width="96" height="70" fill="none" stroke="#35978f" stroke-width="1.5"/>
		<line x1="228" y1="183" x2="324" y2="183" stroke="#35978f" stroke-width="1"/>
	</g>
	<text x="258" y="175.6" fill="#000000" font-family="Courier New" font-size="14">IsIn</text>
	<text x="233" y="201.6" fill="#000000" font-family="Courier New" font-size="14">#IdStudent</text>
	<line x1="233" y1="204.0" x2="318" y2="204.0" stroke="#000000" stroke-width="1"/>
	<text x="233" y="219.6" fill="#000000" font-family="Courier New" font-size="14">#IdGroup</text>
	<line x1="233" y1="222.0" x2="301" y2="222.0" stroke="#000000" stroke-width="1"/>
</g>

<!-- Entity Groups -->
<g id="entity-Groups">
	<g id="frame-Groups">
		<rect x="402" y="157" width="88" height="26" fill="#80cdc1" stroke="#80cdc1" stroke-width="0"/>
		<rect x="402" y="183.0" width="88" height="44" fill="#c7eae5" stroke="#c7eae5" stroke-width="0"/>
		<rect x="402" y="157" width="88" height="70" fill="none" stroke="#35978f" stroke-width="1.5"/>
		<line x1="402" y1="183" x2="490" y2="183" stroke="#35978f" stroke-width="1"/>
	</g>
	<text x="420" y="175.6" fill="#000000" font-family="Courier New" font-size="14">Groups</text>
	<text x="407" y="201.6" fill="#000000" font-family="Courier New" font-size="14">IdGroup</text>
	<line x1="407" y1="204.0" x2="467" y2="204.0" stroke="#000000" stroke-width="1"/>
	<text x="407" y="219.6" fill="#000000" font-family="Courier New" font-size="14">GroupName</text>
</g>

<!-- Entity StdAttrs -->
<g id="entity-StdAttrs">
	<g id="frame-StdAttrs">
		<rect x="220" y="251" width="112" height="26" fill="#80cdc1" stroke="#80cdc1" stroke-width="0"/>
		<rect x="220" y="277.0" width="112" height="98" fill="#c7eae5" stroke="#c7eae5" stroke-width="0"/>
		<rect x="220" y="251" width="112" height="124" fill="none" stroke="#35978f" stroke-width="1.5"/>
		<line x1="220" y1="277" x2="332" y2="277" stroke="#35978f" stroke-width="1"/>
	</g>
	<text x="242" y="269.6" fill="#000000" font-family="Courier New" font-size="14">StdAttrs</text>
	<text x="225" y="295.6" fill="#000000" font-family="Courier New" font-size="14">IdStdAttr</text>
	<line x1="225" y1="298.0" x2="302" y2="298.0" stroke="#000000" stroke-width="1"/>
	<text x="225" y="313.6" fill="#000000" font-family="Courier New" font-size="14">StdAttrValue</text>
	<text x="225" y="331.6" fill="#000000" font-family="Courier New" font-size="14">#IdStudent</text>
	<text x="225" y="349.6" fill="#000000" font-family="Courier New" font-size="14">#IdAttr</text>
	<text x="225" y="367.6" fill="#000000" font-family="Courier New" font-size="14">#IdTopic</text>
</g>

<!-- Entity Topics -->
<g id="entity-Topics">
	<g id="frame-Topics">
		<rect x="560" y="278" width="88" height="26" fill="#80cdc1" stroke="#80cdc1" stroke-width="0"/>
		<rect x="560" y="304.0" width="88" height="44" fill="#c7eae5" stroke="#c7eae5" stroke-width="0"/>
		<rect x="560" y="278" width="88" height="70" fill="none" stroke="#35978f" stroke-width="1.5"/>
		<line x1="560" y1="304" x2="648" y2="304" stroke="#35978f" stroke-width="1"/>
	</g>
	<text x="578" y="296.6" fill="#000000" font-family="Courier New" font-size="14">Topics</text>
	<text x="565" y="322.6" fill="#000000" font-family="Courier New" font-size="14">IdTopic</text>
	<line x1="565" y1="325.0" x2="625" y2="325.0" stroke="#000000" stroke-width="1"/>
	<text x="565" y="340.6" fill="#000000" font-family="Courier New" font-size="14">TopicName</text>
</g>

<!-- Entity Attributes -->
<g id="entity-Attributes">
	<g id="frame-Attributes">
		<rect x="228" y="399" width="96" height="26" fill="#80cdc1" stroke="#80cdc1" stroke-width="0"/>
		<rect x="228" y="425.0" width="96" height="62" fill="#c7eae5" stroke="#c7eae5" stroke-width="0"/>
		<rect x="228" y="399" width="96" height="88" fill="none" stroke="#35978f" stroke-width="1.5"/>
		<line x1="228" y1="425" x2="324" y2="425" stroke="#35978f" stroke-width="1"/>
	</g>
	<text x="233" y="417.6" fill="#000000" font-family="Courier New" font-size="14">Attributes</text>
	<text x="233" y="443.6" fill="#000000" font-family="Courier New" font-size="14">IdAttr</text>
	<line x1="233" y1="446.0" x2="285" y2="446.0" stroke="#000000" stroke-width="1"/>
	<text x="233" y="461.6" fill="#000000" font-family="Courier New" font-size="14">AttrName</text>
	<text x="233" y="479.6" fill="#000000" font-family="Courier New" font-size="14">AttrType</text>
</g>
<path d="M398 103.0 C 276.0 80.5 316.6666666666667 58.0 154 58.0" fill="none" stroke="#bf812d" stroke-width="1"/>
<path d="M 154 58.0 L 166.0 52.0 L 162.0 58.0 L 166.0 64.0 Z" fill="#bf812d" stroke-width="0"/>
<circle cx="398" cy="103.0" r="1.5" stroke="#bf812d" stroke-width="1.5" fill="#bf812d"/>
<path d="M494 121.0 C 604.0 94.0 567.3333333333334 67.0 714 67.0" fill="none" stroke="#bf812d" stroke-width="1"/>
<path d="M 714 67.0 L 702.0 73.0 L 706.0 67.0 L 702.0 61.0 Z" fill="#bf812d" stroke-width="0"/>
<circle cx="494" cy="121.0" r="1.5" stroke="#bf812d" stroke-width="1.5" fill="#bf812d"/>
<path d="M714 103.0 C 681.0 210.5 692.0 318.0 648 318.0" fill="none" stroke="#bf812d" stroke-width="1"/>
<path d="M 648 318.0 L 660.0 312.0 L 656.0 318.0 L 660.0 324.0 Z" fill="#bf812d" stroke-width="0"/>
<circle cx="714" cy="103.0" r="1.5" stroke="#bf812d" stroke-width="1.5" fill="#bf812d"/>
<path d="M228 197.0 C 191.0 127.5 203.33333333333334 58.0 154 58.0" fill="none" stroke="#bf812d" stroke-width="1"/>
<path d="M 154 58.0 L 166.0 52.0 L 162.0 58.0 L 166.0 64.0 Z" fill="#bf812d" stroke-width="0"/>
<circle cx="228" cy="197.0" r="1.5" stroke="#bf812d" stroke-width="1.5" fill="#bf812d"/>
<path d="M324 215.0 C 363.0 206.0 350.0 197.0 402 197.0" fill="none" stroke="#bf812d" stroke-width="1"/>
<path d="M 402 197.0 L 390.0 203.0 L 394.0 197.0 L 390.0 191.0 Z" fill="#bf812d" stroke-width="0"/>
<circle cx="324" cy="215.0" r="1.5" stroke="#bf812d" stroke-width="1.5" fill="#bf812d"/>
<path d="M220 327.0 C 187.0 192.5 198.0 58.0 154 58.0" fill="none" stroke="#bf812d" stroke-width="1"/>
<path d="M 154 58.0 L 166.0 52.0 L 162.0 58.0 L 166.0 64.0 Z" fill="#bf812d" stroke-width="0"/>
<circle cx="220" cy="327.0" r="1.5" stroke="#bf812d" stroke-width="1.5" fill="#bf812d"/>
<path d="M220 345.0 C 164 392.0 172 439.0 228 439.0" fill="none" stroke="#bf812d" stroke-width="1"/>
<path d="M 228 439.0 L 216.0 445.0 L 220.0 439.0 L 216.0 433.0 Z" fill="#bf812d" stroke-width="0"/>
<circle cx="220" cy="345.0" r="1.5" stroke="#bf812d" stroke-width="1.5" fill="#bf812d"/>
<path d="M332 363.0 C 446.0 340.5 408.0 318.0 560 318.0" fill="none" stroke="#bf812d" stroke-width="1"/>
<path d="M 560 318.0 L 548.0 324.0 L 552.0 318.0 L 548.0 312.0 Z" fill="#bf812d" stroke-width="0"/>
<circle cx="332" cy="363.0" r="1.5" stroke="#bf812d" stroke-width="1.5" fill="#bf812d"/>
</svg>