<?xml version="1.0" standalone="no"?>
<!DOCTYPE svg PUBLIC "-//W3C//DTD SVG 1.1//EN"
"http://www.w3.org/Graphics/SVG/1.1/DTD/svg11.dtd">

<svg width="682" height="236" view_box="0 0 682 236"
xmlns="http://www.w3.org/2000/svg"
xmlns:link="http://www.w3.org/1999/xlink">\n\n<desc>Généré par Mocodo 2.3.7 le Sat, 04 Jul 2020 14:39:56</desc>

<rect id="frame" x="0" y="0" width="682" height="236" fill="#f5f5f5" stroke="none" stroke-width="0"/>

<!-- Entity Students -->
<g id="entity-Students">
	<g id="frame-Students">
		<rect x="42" y="18" width="112" height="26" fill="#80cdc1" stroke="#80cdc1" stroke-width="0"/>
		<rect x="42" y="44.0" width="112" height="80" fill="#c7eae5" stroke="#c7eae5" stroke-width="0"/>
		<rect x="42" y="18" width="112" height="106" fill="none" stroke="#35978f" stroke-width="1.5"/>
		<line x1="42" y1="44" x2="154" y2="44" stroke="#35978f" stroke-width="1"/>
	</g>
	<text x="64" y="36.6" fill="#000000" font-family="Courier New" font-size="14">Students</text>
	<text x="47" y="62.6" fill="#000000" font-family="Courier New" font-size="14">IdStudent</text>
	<line x1="47" y1="65.0" x2="124" y2="65.0" stroke="#000000" stroke-width="1"/>
	<text x="47" y="80.6" fill="#000000" font-family="Courier New" font-size="14">StdFirstname</text>
	<text x="47" y="98.6" fill="#000000" font-family="Courier New" font-size="14">StdLastname</text>
	<text x="47" y="116.6" fill="#000000" font-family="Courier New" font-size="14">OrderKey</text>
</g>

<!-- Entity Desks -->
<g id="entity-Desks">
	<g id="frame-Desks">
		<rect x="382" y="9" width="96" height="26" fill="#80cdc1" stroke="#80cdc1" stroke-width="0"/>
		<rect x="382" y="35.0" width="96" height="98" fill="#c7eae5" stroke="#c7eae5" stroke-width="0"/>
		<rect x="382" y="9" width="96" height="124" fill="none" stroke="#35978f" stroke-width="1.5"/>
		<line x1="382" y1="35" x2="478" y2="35" stroke="#35978f" stroke-width="1"/>
	</g>
	<text x="408" y="27.6" fill="#000000" font-family="Courier New" font-size="14">Desks</text>
	<text x="387" y="53.6" fill="#000000" font-family="Courier New" font-size="14">IdDesk</text>
	<line x1="387" y1="56.0" x2="439" y2="56.0" stroke="#000000" stroke-width="1"/>
	<text x="387" y="71.6" fill="#000000" font-family="Courier New" font-size="14">DeskRow</text>
	<text x="387" y="89.6" fill="#000000" font-family="Courier New" font-size="14">DeskCol</text>
	<text x="387" y="107.6" fill="#000000" font-family="Courier New" font-size="14">#IdStudent</text>
	<text x="387" y="125.6" fill="#000000" font-family="Courier New" font-size="14">#IdCourse</text>
</g>

<!-- Entity Courses -->
<g id="entity-Courses">
	<g id="frame-Courses">
		<rect x="544" y="36" width="96" height="26" fill="#80cdc1" stroke="#80cdc1" stroke-width="0"/>
		<rect x="544" y="62.0" width="96" height="44" fill="#c7eae5" stroke="#c7eae5" stroke-width="0"/>
		<rect x="544" y="36" width="96" height="70" fill="none" stroke="#35978f" stroke-width="1.5"/>
		<line x1="544" y1="62" x2="640" y2="62" stroke="#35978f" stroke-width="1"/>
	</g>
	<text x="562" y="54.6" fill="#000000" font-family="Courier New" font-size="14">Courses</text>
	<text x="549" y="80.6" fill="#000000" font-family="Courier New" font-size="14">IdCourse</text>
	<line x1="549" y1="83.0" x2="617" y2="83.0" stroke="#000000" stroke-width="1"/>
	<text x="549" y="98.6" fill="#000000" font-family="Courier New" font-size="14">CourseName</text>
</g>

<!-- Entity IsIn -->
<g id="entity-IsIn">
	<g id="frame-IsIn">
		<rect x="220" y="157" width="96" height="26" fill="#80cdc1" stroke="#80cdc1" stroke-width="0"/>
		<rect x="220" y="183.0" width="96" height="44" fill="#c7eae5" stroke="#c7eae5" stroke-width="0"/>
		<rect x="220" y="157" width="96" height="70" fill="none" stroke="#35978f" stroke-width="1.5"/>
		<line x1="220" y1="183" x2="316" y2="183" stroke="#35978f" stroke-width="1"/>
	</g>
	<text x="250" y="175.6" fill="#000000" font-family="Courier New" font-size="14">IsIn</text>
	<text x="225" y="201.6" fill="#000000" font-family="Courier New" font-size="14">#IdStudent</text>
	<line x1="225" y1="204.0" x2="310" y2="204.0" stroke="#000000" stroke-width="1"/>
	<text x="225" y="219.6" fill="#000000" font-family="Courier New" font-size="14">#IdClass</text>
	<line x1="225" y1="222.0" x2="293" y2="222.0" stroke="#000000" stroke-width="1"/>
</g>

<!-- Entity Classes -->
<g id="entity-Classes">
	<g id="frame-Classes">
		<rect x="386" y="157" width="88" height="26" fill="#80cdc1" stroke="#80cdc1" stroke-width="0"/>
		<rect x="386" y="183.0" width="88" height="44" fill="#c7eae5" stroke="#c7eae5" stroke-width="0"/>
		<rect x="386" y="157" width="88" height="70" fill="none" stroke="#35978f" stroke-width="1.5"/>
		<line x1="386" y1="183" x2="474" y2="183" stroke="#35978f" stroke-width="1"/>
	</g>
	<text x="400" y="175.6" fill="#000000" font-family="Courier New" font-size="14">Classes</text>
	<text x="391" y="201.6" fill="#000000" font-family="Courier New" font-size="14">IdClass</text>
	<line x1="391" y1="204.0" x2="451" y2="204.0" stroke="#000000" stroke-width="1"/>
	<text x="391" y="219.6" fill="#000000" font-family="Courier New" font-size="14">ClassName</text>
</g>
<path d="M382 103.0 C 268.0 80.5 306.0 58.0 154 58.0" fill="none" stroke="#bf812d" stroke-width="1"/>
<path d="M 154 58.0 L 166.0 52.0 L 162.0 58.0 L 166.0 64.0 Z" fill="#bf812d" stroke-width="0"/>
<circle cx="382" cy="103.0" r="1.5" stroke="#bf812d" stroke-width="1.5" fill="#bf812d"/>
<path d="M478 121.0 C 511.0 98.5 500.0 76.0 544 76.0" fill="none" stroke="#bf812d" stroke-width="1"/>
<path d="M 544 76.0 L 532.0 82.0 L 536.0 76.0 L 532.0 70.0 Z" fill="#bf812d" stroke-width="0"/>
<circle cx="478" cy="121.0" r="1.5" stroke="#bf812d" stroke-width="1.5" fill="#bf812d"/>
<path d="M220 197.0 C 187.0 127.5 198.0 58.0 154 58.0" fill="none" stroke="#bf812d" stroke-width="1"/>
<path d="M 154 58.0 L 166.0 52.0 L 162.0 58.0 L 166.0 64.0 Z" fill="#bf812d" stroke-width="0"/>
<circle cx="220" cy="197.0" r="1.5" stroke="#bf812d" stroke-width="1.5" fill="#bf812d"/>
<path d="M316 215.0 C 351.0 206.0 339.3333333333333 197.0 386 197.0" fill="none" stroke="#bf812d" stroke-width="1"/>
<path d="M 386 197.0 L 374.0 203.0 L 378.0 197.0 L 374.0 191.0 Z" fill="#bf812d" stroke-width="0"/>
<circle cx="316" cy="215.0" r="1.5" stroke="#bf812d" stroke-width="1.5" fill="#bf812d"/>
</svg>